<svg xmlns="http://www.w3.org/2000/svg" xmlns:xlink="http://www.w3.org/1999/xlink" width="54" height="54" viewBox="0 0 54 54">
  <defs>
    <clipPath id="clip-path">
      <rect id="Rectangle_9" data-name="Rectangle 9" width="54" height="54" transform="translate(178 1181)" fill="#fff" stroke="#707070" stroke-width="1"/>
    </clipPath>
  </defs>
  <g id="Mask_Group_2" data-name="Mask Group 2" transform="translate(-178 -1181)" clip-path="url(#clip-path)">
    <g id="_036---Curry" data-name="036---Curry" transform="translate(178 1181)">
      <circle id="Oval" cx="27" cy="27" r="27" fill="#c19d70"/>
      <circle id="Oval-2" data-name="Oval" cx="23.276" cy="23.276" r="23.276" transform="translate(3.724 3.724)" fill="#765226"/>
      <path id="Shape" d="M48.246,24.365c-1.694,1.536-1.806-1.089-5.419-1.089-2.793,0-1.862.931-5.586,1.862s-6.517-.931-7.448,3.724S27,31.655,26.069,35.379s2.793,4.655.931,7.448a5.255,5.255,0,0,0,0,5.586A21.414,21.414,0,1,1,48.246,24.365Z" fill="#f29c1f"/>
      <path id="Shape-2" data-name="Shape" d="M15.026,14.922a.931.931,0,0,1-.631-1.615A18.556,18.556,0,0,1,27,8.379a.931.931,0,1,1,0,1.862,16.7,16.7,0,0,0-11.344,4.434A.931.931,0,0,1,15.026,14.922Z" fill="#f0c419"/>
      <path id="Shape-3" data-name="Shape" d="M27,48.414a5.255,5.255,0,0,1,0-5.586c1.862-2.793-1.862-3.724-.931-7.448s2.793-1.862,3.724-6.517,3.724-2.793,7.448-3.724,2.793-1.862,5.586-1.862c3.612,0,3.724,2.626,5.419,1.089A21.414,21.414,0,0,1,27,48.414Z" fill="#f29c1f"/>
      <g id="Group_3" data-name="Group 3">
        <path id="Shape-4" data-name="Shape" d="M34.448,31.655a.931.931,0,0,1-.931-.931v-.931a.931.931,0,1,1,1.862,0v.931A.931.931,0,0,1,34.448,31.655Z" fill="#f0c419"/>
        <path id="Shape-5" data-name="Shape" d="M32.586,36.31c-.493,0-.628-.243-1.589-1.2a.931.931,0,0,1,1.316-1.316l.931.931a.931.931,0,0,1-.658,1.589Z" fill="#f0c419"/>
        <path id="Shape-6" data-name="Shape" d="M38.172,36.31a.931.931,0,0,1-.658-1.589l.931-.931a.931.931,0,0,1,1.316,1.316C38.775,36.094,38.657,36.31,38.172,36.31Z" fill="#f0c419"/>
        <path id="Shape-7" data-name="Shape" d="M41.9,29.793c-.493,0-.628-.243-1.589-1.2a.931.931,0,0,1,1.316-1.316l.931.931a.931.931,0,0,1-.658,1.589Z" fill="#f0c419"/>
        <path id="Shape-8" data-name="Shape" d="M43.759,33.517a.931.931,0,0,1-.931-.931v-.931a.931.931,0,0,1,1.862,0v.931A.931.931,0,0,1,43.759,33.517Z" fill="#f0c419"/>
        <path id="Shape-9" data-name="Shape" d="M37.241,41.9a.931.931,0,0,1-.931-.931v-.931a.931.931,0,0,1,1.862,0v.931A.931.931,0,0,1,37.241,41.9Z" fill="#f0c419"/>
        <path id="Shape-10" data-name="Shape" d="M33.517,40.034a.931.931,0,0,1-.658-1.589l.931-.931a.931.931,0,0,1,1.316,1.316c-.987.988-1.105,1.2-1.589,1.2Z" fill="#f0c419"/>
        <path id="Shape-11" data-name="Shape" d="M31.655,44.69a.931.931,0,0,1-.931-.931v-.931a.931.931,0,0,1,1.862,0v.931A.931.931,0,0,1,31.655,44.69Z" fill="#f0c419"/>
      </g>
      <circle id="Oval-3" data-name="Oval" cx="1.862" cy="1.862" r="1.862" transform="translate(32.586 13.034)" fill="#f0c419"/>
      <circle id="Oval-4" data-name="Oval" cx="1.862" cy="1.862" r="1.862" transform="translate(20.483 26.069)" fill="#f0c419"/>
      <circle id="Oval-5" data-name="Oval" cx="1.862" cy="1.862" r="1.862" transform="translate(17.69 36.31)" fill="#f0c419"/>
      <circle id="Oval-6" data-name="Oval" cx="1.862" cy="1.862" r="1.862" transform="translate(12.103 18.621)" fill="#f0c419"/>
      <rect id="Rectangle-path" width="3.724" height="3.724" rx="0.931" transform="translate(22.345 14.897)" fill="#f0c419"/>
      <rect id="Rectangle-path-2" data-name="Rectangle-path" width="3.724" height="3.724" rx="0.931" transform="translate(11.172 27.931)" fill="#f0c419"/>
    </g>
  </g>
</svg>
