<svg id="_ÎÓÈ_1" data-name="—ÎÓÈ_1" xmlns="http://www.w3.org/2000/svg" xmlns:xlink="http://www.w3.org/1999/xlink" viewBox="0 0 502.18 502"><defs><style>.cls-1{fill:#212121;}.cls-2{fill:url(#_ÂÁ_Ï_ÌÌ_È_ËÂÌÚ_31);}</style><linearGradient id="_ÂÁ_Ï_ÌÌ_È_ËÂÌÚ_31" x1="136.37" y1="246.6" x2="369.79" y2="246.6" gradientUnits="userSpaceOnUse"><stop offset="0" stop-color="#be965d"/><stop offset="0.28" stop-color="#976f40"/><stop offset="0.43" stop-color="#c99b61"/><stop offset="0.56" stop-color="#f0be7b"/><stop offset="0.63" stop-color="#ffcb85"/><stop offset="0.71" stop-color="#eebc79"/><stop offset="0.87" stop-color="#c0935b"/><stop offset="1" stop-color="#976f40"/></linearGradient></defs><circle class="cls-1" cx="252.18" cy="252" r="247"/><path class="cls-2" d="M179.64,186.19q7,6.38,7,18.54a26.76,26.76,0,0,1-3.42,13.72,23.13,23.13,0,0,1-9.87,9.11A33.85,33.85,0,0,1,158,230.8l-4.46-.08c-2.79-.09-4.8-.14-6-.14q-7.41,0-11.09.22v-1.44a12.46,12.46,0,0,0,3.49-.58,2.5,2.5,0,0,0,1.52-1.66,14.27,14.27,0,0,0,.39-4V187.45a14.37,14.37,0,0,0-.39-4,2.49,2.49,0,0,0-1.52-1.65,12.46,12.46,0,0,0-3.49-.58v-1.44c2,.14,4.92.22,8.71.22h2.24l2.88-.08q5.9-.14,8.42-.14Q172.66,179.82,179.64,186.19Zm-24.44-4.57a2.89,2.89,0,0,0-1.55,1.8,13,13,0,0,0-.43,3.89v36a13.08,13.08,0,0,0,.43,3.89,2.89,2.89,0,0,0,1.55,1.8,8.86,8.86,0,0,0,3.42.5q8.72,0,12.38-6.08t3.68-18.4q0-12.32-3.78-18.11t-12.35-5.79A8.44,8.44,0,0,0,155.2,181.62Z"/><path class="cls-2" d="M206.5,224.1c0,2,.35,3.32,1,4.07a4.77,4.77,0,0,0,3.57,1.11v1.52c-4.8-.2-8-.29-9.58-.29s-4.82.09-10,.29v-1.52q2.59,0,3.6-1.11c.67-.75,1-2.1,1-4.07V201.42a8.89,8.89,0,0,0-1-4.82,4,4,0,0,0-3.6-1.52v-1.51c1.54.15,3,.22,4.47.22a45.36,45.36,0,0,0,10.51-1Zm-.83-47.63a5.59,5.59,0,0,1,0,8.14,8.54,8.54,0,0,1-9.58,0,5.59,5.59,0,0,1,0-8.14,8.54,8.54,0,0,1,9.58,0Z"/><path class="cls-2" d="M248.91,195.37a7.85,7.85,0,0,1,1.72,3.53,26.42,26.42,0,0,1,.51,5.83V224.1c0,2,.35,3.32,1,4.07a4.75,4.75,0,0,0,3.57,1.11v1.52c-4.8-.2-8-.29-9.51-.29s-4.56.09-9.36.29v-1.52a3.64,3.64,0,0,0,3-1.11,7,7,0,0,0,.86-4.07V201.71a8.33,8.33,0,0,0-1-4.47,3.84,3.84,0,0,0-3.49-1.51,6.46,6.46,0,0,0-5,2.41,8.73,8.73,0,0,0-2.09,5.94v20a7,7,0,0,0,.86,4.07,3.64,3.64,0,0,0,3,1.11v1.52c-4.42-.2-7.4-.29-8.93-.29s-4.75.09-9.94.29v-1.52q2.6,0,3.6-1.11c.67-.75,1-2.1,1-4.07V201.42a8.89,8.89,0,0,0-1-4.82,4,4,0,0,0-3.6-1.52v-1.51c1.54.15,3,.22,4.47.22a45.36,45.36,0,0,0,10.51-1v6.48q3.24-6.69,11.81-6.7Q246.45,192.56,248.91,195.37Z"/><path class="cls-2" d="M293.11,195.37a7.76,7.76,0,0,1,1.73,3.53,26.42,26.42,0,0,1,.51,5.83V224.1c0,2,.34,3.32,1,4.07a4.74,4.74,0,0,0,3.56,1.11v1.52c-4.8-.2-8-.29-9.5-.29s-4.56.09-9.36.29v-1.52a3.6,3.6,0,0,0,3-1.11c.58-.75.87-2.1.87-4.07V201.71a8.43,8.43,0,0,0-1-4.47,3.86,3.86,0,0,0-3.5-1.51,6.49,6.49,0,0,0-5,2.41,8.77,8.77,0,0,0-2.08,5.94v20c0,2,.28,3.32.86,4.07a3.62,3.62,0,0,0,3,1.11v1.52c-4.41-.2-7.39-.29-8.92-.29s-4.76.09-9.94.29v-1.52q2.59,0,3.6-1.11c.67-.75,1-2.1,1-4.07V201.42a8.89,8.89,0,0,0-1-4.82,4,4,0,0,0-3.6-1.52v-1.51c1.54.15,3,.22,4.46.22a45.39,45.39,0,0,0,10.52-1v6.48q3.24-6.69,11.8-6.7Q290.66,192.56,293.11,195.37Z"/><path class="cls-2" d="M333.29,220.14l1.3.43a17.23,17.23,0,0,1-5.15,8,13.48,13.48,0,0,1-9.25,3.27q-7.63,0-12.14-4.86t-4.5-14.36q0-9.72,4.83-14.87c3.21-3.43,7.49-5.15,12.81-5.15q13.55,0,13.54,16H314.5c-.05.72-.07,1.85-.07,3.38a20.47,20.47,0,0,0,1.33,7.92,10.14,10.14,0,0,0,3.45,4.61,8,8,0,0,0,4.58,1.44Q329.69,225.9,333.29,220.14Zm-16.81-22.86q-1.69,3.21-2.13,9.9h11.31a27.66,27.66,0,0,0-1.12-9.4q-1.26-3.71-3.78-3.7C319,194.08,317.6,195.14,316.48,197.28Z"/><path class="cls-2" d="M368.14,194.51a7,7,0,0,1,1.65,4.68,6.19,6.19,0,0,1-1.54,4.35,5.27,5.27,0,0,1-4.07,1.7,5.71,5.71,0,0,1-3.89-1.26,4.24,4.24,0,0,1-1.44-3.35A6.52,6.52,0,0,1,362,195a3.76,3.76,0,0,0-.87-.07,4,4,0,0,0-1.15.14,6.88,6.88,0,0,0-4.64,3.32,10.57,10.57,0,0,0-1.91,5.9v19.08c0,2.21.54,3.74,1.62,4.61s2.8,1.29,5.15,1.29v1.52a14.81,14.81,0,0,1-1.66-.08c-4.89-.14-8.16-.21-9.79-.21q-1.95,0-8.86.21a11.26,11.26,0,0,1-1.44.08v-1.52q2.59,0,3.6-1.11c.68-.75,1-2.1,1-4.07V201.42a8.8,8.8,0,0,0-1-4.82,4,4,0,0,0-3.6-1.52v-1.51c1.54.15,3,.22,4.47.22a45.36,45.36,0,0,0,10.51-1v6.7a12.14,12.14,0,0,1,4-5,9.61,9.61,0,0,1,5.83-1.91A6.08,6.08,0,0,1,368.14,194.51Z"/><path class="cls-2" d="M217.7,268.24a2.48,2.48,0,0,0-1.48,1.65,14.28,14.28,0,0,0-.4,4v35.71a14.18,14.18,0,0,0,.4,4,2.49,2.49,0,0,0,1.51,1.66,12.53,12.53,0,0,0,3.49.58v1.44c-2.64-.15-6.4-.22-11.3-.22q-7.71,0-11.38.22v-1.44a14.36,14.36,0,0,0,3.78-.58,2.55,2.55,0,0,0,1.62-1.66,12.83,12.83,0,0,0,.44-4V271.91L187,317.27h-1.15L166.43,270.9v34.49a32.91,32.91,0,0,0,.43,6.23,4.27,4.27,0,0,0,1.88,2.88,11.68,11.68,0,0,0,4.68,1.26v1.44q-2.82-.22-7.78-.22-4,0-6.26.22v-1.44a7.63,7.63,0,0,0,3.49-1.23,4.47,4.47,0,0,0,1.51-2.74,29,29,0,0,0,.4-5.54v-32.4a14.28,14.28,0,0,0-.4-4,2.47,2.47,0,0,0-1.51-1.65,12.6,12.6,0,0,0-3.49-.58v-1.44c1.53.14,3.62.22,6.26.22,4.41,0,8.21-.08,11.38-.22l14.54,35.06,13.25-34.84h5.11c4.9,0,8.66-.08,11.3-.22v1.44A12.29,12.29,0,0,0,217.7,268.24Z"/><path class="cls-2" d="M254.63,306.54l1.3.43a17.23,17.23,0,0,1-5.15,8,13.48,13.48,0,0,1-9.25,3.27q-7.64,0-12.14-4.86T224.89,299q0-9.72,4.83-14.87c3.21-3.43,7.49-5.15,12.81-5.15q13.54,0,13.54,16H235.84c-.05.72-.07,1.85-.07,3.38a20.47,20.47,0,0,0,1.33,7.92,10.09,10.09,0,0,0,3.45,4.61,8,8,0,0,0,4.58,1.44Q251,312.3,254.63,306.54Zm-16.81-22.86q-1.69,3.21-2.13,9.9H247a27.66,27.66,0,0,0-1.12-9.4q-1.26-3.71-3.78-3.7C240.37,280.48,239,281.54,237.82,283.68Z"/><path class="cls-2" d="M294.52,281.77a8,8,0,0,1,1.73,3.53,27.14,27.14,0,0,1,.5,5.83V310.5c0,2,.35,3.32,1.05,4.07a4.73,4.73,0,0,0,3.56,1.11v1.52c-4.8-.2-8-.29-9.51-.29s-4.56.09-9.35.29v-1.52a3.63,3.63,0,0,0,3-1.11,7,7,0,0,0,.86-4.07V288.11a8.33,8.33,0,0,0-1-4.47,3.84,3.84,0,0,0-3.49-1.51,6.46,6.46,0,0,0-5,2.41,8.78,8.78,0,0,0-2.09,5.94v20a7,7,0,0,0,.86,4.07,3.64,3.64,0,0,0,3,1.11v1.52c-4.42-.2-7.39-.29-8.93-.29s-4.75.09-9.94.29v-1.52c1.73,0,2.93-.37,3.61-1.11s1-2.1,1-4.07V287.82a8.91,8.91,0,0,0-1-4.82,4,4,0,0,0-3.61-1.52V280c1.54.15,3,.22,4.47.22a45.36,45.36,0,0,0,10.51-1v6.48Q278,279,286.6,279,292.08,279,294.52,281.77Z"/><path class="cls-2" d="M339.88,309.35a8.71,8.71,0,0,0,1,4.82,4,4,0,0,0,3.57,1.51v1.52A44.59,44.59,0,0,0,340,317a45.94,45.94,0,0,0-10.51,1v-6.48q-3.31,6.69-11.59,6.69-5.4,0-7.85-2.8a8.67,8.67,0,0,1-1.69-3.57,25,25,0,0,1-.54-5.79V287.82a8.68,8.68,0,0,0-1-4.82,4,4,0,0,0-3.57-1.52V280a44.54,44.54,0,0,0,4.46.22,46.6,46.6,0,0,0,10.52-1V309a9,9,0,0,0,.9,4.53c.6,1,1.74,1.52,3.42,1.52a6.27,6.27,0,0,0,4.93-2.42,8.81,8.81,0,0,0,2.05-5.94V287.82a8.68,8.68,0,0,0-1-4.82,4,4,0,0,0-3.57-1.52V280c1.54.15,3,.22,4.47.22a46.51,46.51,0,0,0,10.51-1Z"/></svg>