<svg id="_ÎÓÈ_1" data-name="—ÎÓÈ_1" xmlns="http://www.w3.org/2000/svg" xmlns:xlink="http://www.w3.org/1999/xlink" viewBox="0 0 502.18 502"><defs><style>.cls-1{fill:#212121;}.cls-2{fill:url(#_ÂÁ_Ï_ÌÌ_È_ËÂÌÚ_31);}</style><linearGradient id="_ÂÁ_Ï_ÌÌ_È_ËÂÌÚ_31" x1="90.83" y1="246.31" x2="415.33" y2="246.31" gradientUnits="userSpaceOnUse"><stop offset="0" stop-color="#be965d"/><stop offset="0.28" stop-color="#976f40"/><stop offset="0.43" stop-color="#c99b61"/><stop offset="0.56" stop-color="#f0be7b"/><stop offset="0.63" stop-color="#ffcb85"/><stop offset="0.71" stop-color="#eebc79"/><stop offset="0.87" stop-color="#c0935b"/><stop offset="1" stop-color="#976f40"/></linearGradient></defs><circle class="cls-1" cx="252.18" cy="252" r="247"/><path class="cls-2" d="M134.75,192.06a53.32,53.32,0,0,0,.22,5.47h-1.66q-1.73-8.85-4.72-12.45a10,10,0,0,0-8.17-3.6h-1.65v41.11a11.5,11.5,0,0,0,.61,4.39,3.31,3.31,0,0,0,2.16,1.84,20.29,20.29,0,0,0,4.93.54v1.44q-9.07-.23-13.68-.22t-13.18.22v-1.44a20.46,20.46,0,0,0,4.94-.54,3.31,3.31,0,0,0,2.16-1.84,11.7,11.7,0,0,0,.61-4.39V181.48h-1.59A10.78,10.78,0,0,0,99.87,183a11.89,11.89,0,0,0-4.14,5,39.78,39.78,0,0,0-3,9.54H91.12c.14-1.39.22-3.21.22-5.47q0-5.4-.51-12.24,6.56.21,22.25.22t22.18-.22Q134.75,186.66,134.75,192.06Z"/><path class="cls-2" d="M139.61,228.92a8.69,8.69,0,0,1-2.27-6.26,8.31,8.31,0,0,1,1.7-5.36,11.45,11.45,0,0,1,4.1-3.28,61.53,61.53,0,0,1,6.16-2.45,32.36,32.36,0,0,0,5.79-2.48,3.44,3.44,0,0,0,1.84-3.06v-5.62a7.14,7.14,0,0,0-1.41-4.71,5.33,5.33,0,0,0-4.35-1.7,7.31,7.31,0,0,0-5.26,1.73,6.63,6.63,0,0,1,3.13,2.16,5.34,5.34,0,0,1,1.12,3.39,4.86,4.86,0,0,1-1.66,3.88,5.91,5.91,0,0,1-4,1.44,4.86,4.86,0,0,1-3.89-1.58,6.48,6.48,0,0,1-.39-7.38,9.61,9.61,0,0,1,3-2.63,16.45,16.45,0,0,1,4.78-1.8,28.17,28.17,0,0,1,6.23-.65,23,23,0,0,1,6.12.72,9.62,9.62,0,0,1,4.32,2.45,7.92,7.92,0,0,1,2.13,3.89,28.66,28.66,0,0,1,.54,6.26v19.59a6.49,6.49,0,0,0,.32,2.45,1.25,1.25,0,0,0,1.26.72,4.45,4.45,0,0,0,2.59-1.23l.72,1.23a12.09,12.09,0,0,1-7.92,2.66q-4,0-5.54-1.58a6,6,0,0,1-1.66-4.25,11.67,11.67,0,0,1-10.58,5.83C143.42,231.3,141.12,230.51,139.61,228.92Zm17.32-5.18V209a11,11,0,0,1-3.67,3.17,17.35,17.35,0,0,0-4.25,3.6,8.13,8.13,0,0,0-1.44,5.18,6.5,6.5,0,0,0,1.22,4.36,4.11,4.11,0,0,0,3.24,1.4C153.9,226.69,155.54,225.71,156.93,223.74Z"/><path class="cls-2" d="M212.73,228.1a4,4,0,0,0,1.87,1.18v1.52c-3.84-.2-6.36-.29-7.56-.29-1.59,0-4.68.09-9.29.29v-1.52a3,3,0,0,0,1.59-.36,1.12,1.12,0,0,0,.57-1,2.76,2.76,0,0,0-.36-1.08L192.42,214a4.28,4.28,0,0,0-1.51-1.66,5.43,5.43,0,0,0-2-.57V224.1c0,2,.32,3.32.94,4.07s1.75,1.11,3.39,1.11v1.52c-4.81-.2-7.92-.29-9.37-.29-1.63,0-4.94.09-9.93.29v-1.52a4.73,4.73,0,0,0,3.56-1.11c.7-.75,1.05-2.1,1.05-4.07v-41a8.59,8.59,0,0,0-1.05-4.82,4,4,0,0,0-3.56-1.52v-1.51c1.53.15,3,.22,4.46.22a46.45,46.45,0,0,0,10.51-1v35.93a8.94,8.94,0,0,0,2.49-.58,5.3,5.3,0,0,0,1.84-1.29l5.47-5.33q2.37-2.39,2.37-4.39a3,3,0,0,0-1.51-2.63,8.29,8.29,0,0,0-4-1.12v-1.44q4,.23,8.42.22c4,0,6.79-.07,8.43-.22V195c-2.84.63-5.84,2.47-9,5.55l-4.61,4.75,12.09,20.23A28.46,28.46,0,0,0,212.73,228.1Z"/><path class="cls-2" d="M245.41,220.14l1.3.43a17.23,17.23,0,0,1-5.15,8,13.46,13.46,0,0,1-9.25,3.27q-7.63,0-12.13-4.86t-4.5-14.36q0-9.72,4.82-14.87t12.82-5.15q13.53,0,13.53,16H226.62c-.05.72-.07,1.85-.07,3.38a20.47,20.47,0,0,0,1.33,7.92,10.09,10.09,0,0,0,3.46,4.61,8,8,0,0,0,4.57,1.44Q241.82,225.9,245.41,220.14ZM228.6,197.28q-1.69,3.21-2.12,9.9h11.3a27.43,27.43,0,0,0-1.11-9.4q-1.26-3.71-3.78-3.7C231.16,194.08,229.73,195.14,228.6,197.28Z"/><path class="cls-2" d="M253.66,228.92a8.69,8.69,0,0,1-2.27-6.26,8.3,8.3,0,0,1,1.69-5.36,11.57,11.57,0,0,1,4.11-3.28,61.23,61.23,0,0,1,6.15-2.45,32.53,32.53,0,0,0,5.8-2.48A3.45,3.45,0,0,0,271,206v-5.62a7.13,7.13,0,0,0-1.4-4.71,5.34,5.34,0,0,0-4.35-1.7,7.31,7.31,0,0,0-5.26,1.73,6.68,6.68,0,0,1,3.13,2.16,5.4,5.4,0,0,1,1.12,3.39,4.89,4.89,0,0,1-1.66,3.88,5.93,5.93,0,0,1-4,1.44,4.85,4.85,0,0,1-3.89-1.58,5.87,5.87,0,0,1-1.37-4,5.94,5.94,0,0,1,1-3.42,9.72,9.72,0,0,1,3-2.63,16.52,16.52,0,0,1,4.79-1.8,28.17,28.17,0,0,1,6.23-.65,23,23,0,0,1,6.12.72,9.62,9.62,0,0,1,4.32,2.45,8,8,0,0,1,2.12,3.89,28.66,28.66,0,0,1,.54,6.26v19.59a6.44,6.44,0,0,0,.33,2.45,1.24,1.24,0,0,0,1.26.72,4.45,4.45,0,0,0,2.59-1.23l.72,1.23a12.09,12.09,0,0,1-7.92,2.66q-4,0-5.55-1.58a6,6,0,0,1-1.65-4.25,11.67,11.67,0,0,1-10.59,5.83Q255.93,231.3,253.66,228.92ZM271,223.74V209a10.92,10.92,0,0,1-3.67,3.17,17.54,17.54,0,0,0-4.25,3.6,8.13,8.13,0,0,0-1.44,5.18,6.5,6.5,0,0,0,1.23,4.36,4.09,4.09,0,0,0,3.24,1.4Q268.89,226.69,271,223.74Z"/><path class="cls-2" d="M342.54,193.57V195a5.79,5.79,0,0,0-2.73,1.8,11.9,11.9,0,0,0-2.16,4.39l-9.58,29.74c-.53-.05-1.32-.07-2.38-.07s-1.77,0-2.3.07l-9.79-26.71-8,26.71c-.48-.05-1.25-.07-2.31-.07s-1.85,0-2.37.07l-11.38-31.82a6.62,6.62,0,0,0-1.94-3.28,3.9,3.9,0,0,0-2.24-.76v-1.51q4.68.44,10.23.43,3.6,0,9.36-.43v1.51a11.48,11.48,0,0,0-3.42.36,1.61,1.61,0,0,0-1.05,1.73,5.81,5.81,0,0,0,.36,2l6.48,20.37,7.85-26,2.67.07,2.59-.07L329.8,221l4.53-14.47a19.88,19.88,0,0,0,1-5.47c0-3.74-1.89-5.76-5.69-6.05v-1.44q3.39.23,7.42.22A48.51,48.51,0,0,0,342.54,193.57Z"/><path class="cls-2" d="M346.11,228.92a8.65,8.65,0,0,1-2.27-6.26,8.3,8.3,0,0,1,1.69-5.36,11.62,11.62,0,0,1,4.1-3.28,61.53,61.53,0,0,1,6.16-2.45,32.53,32.53,0,0,0,5.8-2.48,3.45,3.45,0,0,0,1.83-3.06v-5.62a7.19,7.19,0,0,0-1.4-4.71,5.35,5.35,0,0,0-4.36-1.7,7.3,7.3,0,0,0-5.25,1.73,6.73,6.73,0,0,1,3.13,2.16,5.39,5.39,0,0,1,1.11,3.39,4.88,4.88,0,0,1-1.65,3.88,5.94,5.94,0,0,1-4,1.44,4.85,4.85,0,0,1-3.89-1.58,6.46,6.46,0,0,1-.4-7.38,9.72,9.72,0,0,1,3-2.63,16.52,16.52,0,0,1,4.79-1.8,28.11,28.11,0,0,1,6.23-.65,23,23,0,0,1,6.12.72,9.73,9.73,0,0,1,4.32,2.45,8,8,0,0,1,2.12,3.89,28.66,28.66,0,0,1,.54,6.26v19.59a6.7,6.7,0,0,0,.32,2.45,1.25,1.25,0,0,0,1.26.72,4.48,4.48,0,0,0,2.6-1.23l.72,1.23a12.09,12.09,0,0,1-7.92,2.66q-4,0-5.55-1.58a6,6,0,0,1-1.65-4.25A11.67,11.67,0,0,1,353,231.3Q348.38,231.3,346.11,228.92Zm17.31-5.18V209a10.92,10.92,0,0,1-3.67,3.17,17.54,17.54,0,0,0-4.25,3.6,8.13,8.13,0,0,0-1.44,5.18,6.5,6.5,0,0,0,1.23,4.36,4.09,4.09,0,0,0,3.24,1.4Q361.34,226.69,363.42,223.74Z"/><path class="cls-2" d="M415.33,193.57V195a5.59,5.59,0,0,0-2.7,1.84,14.75,14.75,0,0,0-2.26,4.35l-12.89,36.22a12,12,0,0,1-3.17,5.11q-2.08,1.8-6.26,1.8a10.25,10.25,0,0,1-5.44-1.47,4.74,4.74,0,0,1-2.41-4.29,4.43,4.43,0,0,1,1.58-3.56,6.28,6.28,0,0,1,4.18-1.33,6.07,6.07,0,0,1,3.92,1.18,4.05,4.05,0,0,1,1.48,3.35,4.5,4.5,0,0,1-.94,2.77,5.68,5.68,0,0,1-2.66,1.91,12.85,12.85,0,0,0,1.65.07q4.47,0,6.56-5.68l1.15-3.46-15.27-34.7a8.41,8.41,0,0,0-2.23-3.24,3.72,3.72,0,0,0-2.23-.8v-1.51q4.75.44,9.87.43,4.25,0,10-.43v1.51a13.08,13.08,0,0,0-3.42.33,1.54,1.54,0,0,0-1.11,1.69,5.5,5.5,0,0,0,.5,2L402,220.36l5-13.83a18.3,18.3,0,0,0,1.15-5.76q0-5.25-5.32-5.76v-1.44q3.38.23,7,.22A51.7,51.7,0,0,0,415.33,193.57Z"/><path class="cls-2" d="M217.7,268.24a2.48,2.48,0,0,0-1.48,1.65,14.28,14.28,0,0,0-.4,4v35.71a14.18,14.18,0,0,0,.4,4,2.49,2.49,0,0,0,1.51,1.66,12.53,12.53,0,0,0,3.49.58v1.44c-2.64-.15-6.4-.22-11.3-.22q-7.71,0-11.38.22v-1.44a14.36,14.36,0,0,0,3.78-.58,2.55,2.55,0,0,0,1.62-1.66,12.83,12.83,0,0,0,.44-4V271.91L187,317.27h-1.15L166.43,270.9v34.49a32.91,32.91,0,0,0,.43,6.23,4.27,4.27,0,0,0,1.88,2.88,11.68,11.68,0,0,0,4.68,1.26v1.44q-2.82-.22-7.78-.22-4,0-6.26.22v-1.44a7.63,7.63,0,0,0,3.49-1.23,4.47,4.47,0,0,0,1.51-2.74,29,29,0,0,0,.4-5.54v-32.4a14.28,14.28,0,0,0-.4-4,2.47,2.47,0,0,0-1.51-1.65,12.6,12.6,0,0,0-3.49-.58v-1.44c1.53.14,3.62.22,6.26.22,4.41,0,8.21-.08,11.38-.22l14.54,35.06,13.25-34.84h5.11c4.9,0,8.66-.08,11.3-.22v1.44A12.29,12.29,0,0,0,217.7,268.24Z"/><path class="cls-2" d="M254.63,306.54l1.3.43a17.23,17.23,0,0,1-5.15,8,13.48,13.48,0,0,1-9.25,3.27q-7.64,0-12.14-4.86T224.89,299q0-9.72,4.83-14.87c3.21-3.43,7.49-5.15,12.81-5.15q13.54,0,13.54,16H235.84c-.05.72-.07,1.85-.07,3.38a20.47,20.47,0,0,0,1.33,7.92,10.09,10.09,0,0,0,3.45,4.61,8,8,0,0,0,4.58,1.44Q251,312.3,254.63,306.54Zm-16.81-22.86q-1.69,3.21-2.13,9.9H247a27.66,27.66,0,0,0-1.12-9.4q-1.26-3.71-3.78-3.7C240.37,280.48,239,281.54,237.82,283.68Z"/><path class="cls-2" d="M294.52,281.77a8,8,0,0,1,1.73,3.53,27.14,27.14,0,0,1,.5,5.83V310.5c0,2,.35,3.32,1.05,4.07a4.73,4.73,0,0,0,3.56,1.11v1.52c-4.8-.2-8-.29-9.51-.29s-4.56.09-9.35.29v-1.52a3.63,3.63,0,0,0,3-1.11,7,7,0,0,0,.86-4.07V288.11a8.33,8.33,0,0,0-1-4.47,3.84,3.84,0,0,0-3.49-1.51,6.46,6.46,0,0,0-5,2.41,8.78,8.78,0,0,0-2.09,5.94v20a7,7,0,0,0,.86,4.07,3.64,3.64,0,0,0,3,1.11v1.52c-4.42-.2-7.39-.29-8.93-.29s-4.75.09-9.94.29v-1.52c1.73,0,2.93-.37,3.61-1.11s1-2.1,1-4.07V287.82a8.91,8.91,0,0,0-1-4.82,4,4,0,0,0-3.61-1.52V280c1.54.15,3,.22,4.47.22a45.36,45.36,0,0,0,10.51-1v6.48Q278,279,286.6,279,292.08,279,294.52,281.77Z"/><path class="cls-2" d="M339.88,309.35a8.71,8.71,0,0,0,1,4.82,4,4,0,0,0,3.57,1.51v1.52A44.59,44.59,0,0,0,340,317a45.94,45.94,0,0,0-10.51,1v-6.48q-3.31,6.69-11.59,6.69-5.4,0-7.85-2.8a8.67,8.67,0,0,1-1.69-3.57,25,25,0,0,1-.54-5.79V287.82a8.68,8.68,0,0,0-1-4.82,4,4,0,0,0-3.57-1.52V280a44.54,44.54,0,0,0,4.46.22,46.6,46.6,0,0,0,10.52-1V309a9,9,0,0,0,.9,4.53c.6,1,1.74,1.52,3.42,1.52a6.27,6.27,0,0,0,4.93-2.42,8.81,8.81,0,0,0,2.05-5.94V287.82a8.68,8.68,0,0,0-1-4.82,4,4,0,0,0-3.57-1.52V280c1.54.15,3,.22,4.47.22a46.51,46.51,0,0,0,10.51-1Z"/></svg>