<svg xmlns="http://www.w3.org/2000/svg" xmlns:xlink="http://www.w3.org/1999/xlink" width="62" height="62" viewBox="0 0 62 62">
  <defs>
    <clipPath id="clip-path">
      <rect id="Rectangle_10" data-name="Rectangle 10" width="62" height="62" transform="translate(269.707 1180.707)" fill="#fff" stroke="#707070" stroke-width="1"/>
    </clipPath>
  </defs>
  <g id="Mask_Group_3" data-name="Mask Group 3" transform="translate(-269.707 -1180.707)" clip-path="url(#clip-path)">
    <g id="rice-bowl" transform="translate(270 1186.714)">
      <path id="Path_3" data-name="Path 3" d="M10.828,32.7a1.707,1.707,0,0,1-1.64,2.332H9.127A2.644,2.644,0,0,0,6.6,37.149a2.908,2.908,0,0,0,.875,2.806H53.745a3.515,3.515,0,0,0-3.025-4.215,1.708,1.708,0,0,1-1.494-2.2,3.469,3.469,0,0,0-.8-3.438,3.011,3.011,0,0,0-3.972-.316,1.709,1.709,0,0,1-2.551-.62A6.914,6.914,0,0,0,35.73,25.22a6.742,6.742,0,0,0-4.167,1.458,1.711,1.711,0,0,1-2.66-.741,3.856,3.856,0,0,0-7.264-.121,1.718,1.718,0,0,1-2.709.644,5,5,0,0,0-5.527-.7A5.537,5.537,0,0,0,10.828,32.7Z" transform="translate(0.688 -2.625)" fill="#fff"/>
      <path id="Path_4" data-name="Path 4" d="M5.315,40.874l6.025,6.1h38l6.025-6.1Z" transform="translate(0.516 -0.119)" fill="#c19d70"/>
      <g id="Group_4" data-name="Group 4" transform="translate(0 0)">
        <path id="Path_5" data-name="Path 5" d="M60.21,40.384H58.1a6.907,6.907,0,0,0-4.385-7.228,6.852,6.852,0,0,0-1.944-5.041,6.419,6.419,0,0,0-6.8-1.555,10.225,10.225,0,0,0-8.345-4.349,9.912,9.912,0,0,0-4.6,1.118,7.23,7.23,0,0,0-11.637-.17,8.353,8.353,0,0,0-7.641-.036,9,9,0,0,0-4.7,9.281,6.2,6.2,0,0,0-3.863,4.41,6.351,6.351,0,0,0,.219,3.571H1.925A1.712,1.712,0,0,0,.711,43.3l9.427,9.524a1.721,1.721,0,0,0,1.215.51H50.771a1.68,1.68,0,0,0,1.215-.51L61.413,43.3a1.705,1.705,0,0,0-1.2-2.915ZM12.069,49.908l-6.025-6.1H56.092l-6.037,6.1Zm7.738-23.02a1.718,1.718,0,0,0,2.709-.644,3.856,3.856,0,0,1,7.264.121,1.712,1.712,0,0,0,2.66.741,6.669,6.669,0,0,1,4.167-1.458A6.914,6.914,0,0,1,42.778,29.6a1.711,1.711,0,0,0,2.551.62,3.01,3.01,0,0,1,3.972.316,3.442,3.442,0,0,1,.8,3.438,1.708,1.708,0,0,0,1.494,2.2,3.521,3.521,0,0,1,3.025,4.215H8.376A2.881,2.881,0,0,1,7.5,37.578a2.644,2.644,0,0,1,2.527-2.114h.061a1.707,1.707,0,0,0,1.64-2.332,5.573,5.573,0,0,1,2.539-6.961,5,5,0,0,1,5.539.717Z" transform="translate(-0.213 -3.055)" fill="#765226"/>
        <path id="Path_6" data-name="Path 6" d="M19.763,16.564a1.711,1.711,0,0,0,1.713-1.713V9.75a1.713,1.713,0,0,0-3.426,0v5.1A1.711,1.711,0,0,0,19.763,16.564Z" transform="translate(2.333 -4.805)" fill="#765226"/>
        <path id="Path_7" data-name="Path 7" d="M27.428,13.737a1.711,1.711,0,0,0,1.713-1.713v-5.1a1.713,1.713,0,0,0-3.426,0v5.1A1.711,1.711,0,0,0,27.428,13.737Z" transform="translate(3.427 -5.209)" fill="#765226"/>
        <path id="Path_8" data-name="Path 8" d="M35.093,16.564a1.711,1.711,0,0,0,1.713-1.713V9.75a1.713,1.713,0,0,0-3.426,0v5.1A1.711,1.711,0,0,0,35.093,16.564Z" transform="translate(4.521 -4.805)" fill="#765226"/>
        <path id="Path_9" data-name="Path 9" d="M11.693,36.059a1.7,1.7,0,0,0,2.417.158l.632-.559a1.713,1.713,0,0,0-2.259-2.575l-.632.559a1.723,1.723,0,0,0-.158,2.417Z" transform="translate(1.366 -1.292)" fill="#765226"/>
        <path id="Path_10" data-name="Path 10" d="M39.357,35.1a1.713,1.713,0,0,0,2.259-2.575l-.632-.559a1.713,1.713,0,1,0-2.259,2.575Z" transform="translate(5.201 -1.45)" fill="#765226"/>
        <path id="Path_11" data-name="Path 11" d="M19.246,31.243l.559-.559a1.718,1.718,0,0,0-2.43-2.43l-.559.559a1.718,1.718,0,1,0,2.43,2.43Z" transform="translate(2.086 -1.991)" fill="#765226"/>
        <path id="Path_12" data-name="Path 12" d="M33.583,36.338h1.033a1.713,1.713,0,0,0,0-3.426H33.583a1.713,1.713,0,0,0,0,3.426Z" transform="translate(4.306 -1.255)" fill="#765226"/>
        <path id="Path_13" data-name="Path 13" d="M28.736,31.682h.717a1.713,1.713,0,1,0,0-3.426h-.717a1.713,1.713,0,0,0,0,3.426Z" transform="translate(3.614 -1.92)" fill="#765226"/>
        <path id="Path_14" data-name="Path 14" d="M23.442,36.728a1.711,1.711,0,0,0,1.713-1.713v-.4a1.713,1.713,0,0,0-3.426,0v.4A1.711,1.711,0,0,0,23.442,36.728Z" transform="translate(2.858 -1.257)" fill="#765226"/>
      </g>
    </g>
  </g>
</svg>
